<svg width="15" height="25" viewBox="0 0 15 25" fill="none" xmlns="http://www.w3.org/2000/svg">
<path d="M8.40439 11.0486C5.28411 10.262 4.28068 9.45531 4.28068 8.18864C4.28068 6.7353 5.66212 5.7153 7.99202 5.7153C10.4388 5.7153 11.346 6.84864 11.4284 8.5153H14.4662C14.3769 6.2153 12.9267 4.12197 10.0539 3.4353V0.515305H5.93016V3.3953C3.26349 3.96197 1.11916 5.62864 1.11916 8.20864C1.11916 11.2886 3.75147 12.822 7.57964 13.7153C11.0229 14.5153 11.7034 15.682 11.7034 16.9353C11.7034 17.8486 11.0367 19.3153 7.99202 19.3153C5.1604 19.3153 4.04013 18.082 3.8958 16.5153H0.864868C1.03669 19.4353 3.28411 21.0686 5.93016 21.622V24.5153H10.0539V21.6486C12.7274 21.1486 14.8649 19.6486 14.8649 16.9086C14.8649 13.1353 11.5247 11.842 8.40439 11.0486Z" fill="#F6AEC2"/>
</svg>
