<svg width="26" height="28" viewBox="0 0 26 28" fill="none" xmlns="http://www.w3.org/2000/svg">
<path d="M10.4188 0.777251C10.4188 0.347833 10.0709 0 9.64107 0H0.777251C0.347833 0 0 0.347833 0 0.777251V27.2209C0 27.6516 0.347833 27.999 0.777251 27.999H9.64107C10.0709 27.999 10.4188 27.6516 10.4188 27.2209V27.1077V26.8077C10.4236 26.0291 9.8731 25.8699 9.53361 25.8445H3.09234C2.00892 25.8445 1.8168 25.2357 1.79005 24.9216V23.6395C1.79531 23.4228 1.89356 22.7197 2.99452 22.7197H7.37643C7.65715 22.7127 8.40019 22.6223 8.41378 21.8196V21.4634C8.41378 20.9529 8.0392 20.8046 7.72689 20.7669H3.01865C2.02734 20.7669 1.82426 20.1462 1.79005 19.7581V18.2391C1.81549 17.9206 1.99489 17.3259 2.99452 17.3259H7.60408C7.91375 17.3013 8.41335 17.1491 8.41335 16.41V16.1183C8.41335 15.567 8.00937 15.4112 7.68391 15.3731H3.09234C2.02252 15.3731 1.82031 14.755 1.79005 14.4006V12.9045C1.81812 12.6216 2.00673 12.1259 3.0068 12.1259H7.48959C7.7361 12.1193 8.40019 12.029 8.41335 11.2096V11.0473C8.41335 10.2437 7.61723 10.1762 7.40976 10.1727H2.73529C2.38702 10.1424 1.79005 9.94153 1.79005 8.89715V7.7883C1.82075 7.46722 2.01638 6.92639 3.01865 6.92639H7.52161C7.8598 6.90534 8.43879 6.76454 8.41335 6.03027V5.82412C8.41335 4.94905 7.24703 4.97362 7.24703 4.97362H2.93399C1.98392 4.97362 1.81417 4.37313 1.79005 4.05776V2.94276C1.81329 2.68485 1.97997 2.17867 2.92171 2.17867H9.47351C9.80248 2.16025 10.431 2.03085 10.4201 1.30361V0.841729H10.4188V0.777251Z" fill="#F6AEC2"/>
<path d="M25.8357 0.561457C25.6497 0.188183 25.3186 0.0443128 24.5856 0.25968C23.972 0.444781 23.5175 0.988243 23.2846 1.32204C23.282 1.32467 23.2807 1.32467 23.2794 1.32774C23.0583 1.61504 22.8429 1.43871 22.8429 1.43871V1.44398C22.7162 1.37073 22.5828 1.30713 22.4372 1.26984C21.0217 0.901394 19.4501 2.22956 18.9277 4.23717C18.4505 6.06757 19.019 7.81726 20.1962 8.3923L20.1892 8.4059C20.1892 8.4059 20.5761 8.64495 20.2984 9.15859C20.2971 9.1599 20.2971 9.1599 20.2971 9.16122L19.3071 10.9903L18.4571 12.3922C18.1755 12.8549 17.8619 12.3917 17.8619 12.3917V12.3922L16.0709 9.15289C15.656 8.39932 16.1459 8.07517 16.1459 8.07517L16.1407 8.06816C16.9947 7.30757 17.3579 5.80571 16.95 4.23629C16.4275 2.22869 14.8564 0.900517 13.4392 1.26897C12.0237 1.63785 11.2991 3.563 11.8215 5.5706C12.2228 7.11063 13.2409 8.24317 14.3335 8.52345L14.3291 8.5274C14.3291 8.5274 14.891 8.67215 15.1577 9.42045L16.8298 14.1436C16.9017 14.373 16.989 14.8103 16.7736 15.1656L16.3955 15.7907C16.3938 15.7937 16.1674 16.3082 16.1218 16.6056L14.4226 27.9095C14.4226 27.9095 14.5178 28.103 14.5866 27.9095L17.9478 18.4224C17.9478 18.4224 18.1825 17.9614 18.3452 18.4224L21.7043 27.9038C21.7069 27.9082 21.8644 28.1139 21.9424 27.9038L20.0677 16.7131C20.0116 16.3789 19.7502 15.8029 19.748 15.7972L19.5164 15.3784C19.2883 14.9674 19.3519 14.5204 19.4273 14.2489L21.2402 9.13139C21.2402 9.12964 21.2402 9.12876 21.2415 9.12745C21.3766 8.74628 21.6499 8.53486 21.8424 8.42739C21.8902 8.40853 21.9367 8.3809 21.9837 8.35897C22.0253 8.34098 22.0547 8.33177 22.0547 8.33177L22.0402 8.32914C22.9329 7.87779 23.7154 6.87333 24.0566 5.57016C24.1979 5.02495 24.2395 4.48894 24.2084 3.9854C24.2097 3.98627 24.2167 3.99417 24.2167 3.99417C24.2167 3.99417 24.2167 3.99417 24.2251 3.73494C24.1093 1.72382 24.8742 1.62338 25.3488 1.52293C25.8225 1.42424 25.9515 0.906219 25.8357 0.561457ZM15.0353 7.02246C14.2024 7.23915 13.2769 6.45663 12.9698 5.27365C12.6615 4.09067 13.0869 2.95593 13.9221 2.73925C14.7568 2.52169 15.6823 3.30508 15.9907 4.48763C16.299 5.67017 15.8709 6.8049 15.0353 7.02246ZM22.9087 5.27321C22.6017 6.45619 21.6766 7.23871 20.8432 7.02203C20.0081 6.80447 19.5795 5.66973 19.8879 4.48675C20.1962 3.3042 21.1213 2.52081 21.9569 2.73837C22.7907 2.95549 23.2162 4.09067 22.9087 5.27321Z" fill="#F6AEC2"/>
</svg>
