<svg width="104" height="104" viewBox="0 0 104 104" fill="none" xmlns="http://www.w3.org/2000/svg">
<path opacity="0.15" d="M52 99.6667C66.9577 99.6667 79.0833 98.2116 79.0833 96.4167C79.0833 94.6217 66.9577 93.1667 52 93.1667C37.0423 93.1667 24.9167 94.6217 24.9167 96.4167C24.9167 98.2116 37.0423 99.6667 52 99.6667Z" fill="#45413C"/>
<path d="M52 3.25C61.2861 3.25 70.1919 6.93889 76.7582 13.5052C83.3244 20.0714 87.0133 28.9772 87.0133 38.2633V83.9367C87.0136 84.7295 86.7736 85.5039 86.325 86.1576C85.8763 86.8113 85.24 87.3136 84.5 87.5983C63.6403 95.9611 40.3597 95.9611 19.5 87.5983C18.7681 87.3067 18.1411 86.8014 17.7005 86.1483C17.2599 85.4952 17.0263 84.7245 17.03 83.9367V38.2633C17.03 28.9847 20.7129 20.0855 27.2698 13.5205C33.8267 6.95545 42.7214 3.26148 52 3.25Z" fill="#A86C4D"/>
<path d="M52 3.25C42.7139 3.25 33.8081 6.93889 27.2418 13.5052C20.6756 20.0714 16.9867 28.9772 16.9867 38.2633V47.9483C16.9867 38.6622 20.6756 29.7564 27.2418 23.1902C33.8081 16.6239 42.7139 12.935 52 12.935C61.2861 12.935 70.1919 16.6239 76.7582 23.1902C83.3244 29.7564 87.0133 38.6622 87.0133 47.9483V38.2633C87.0133 28.9772 83.3244 20.0714 76.7582 13.5052C70.1919 6.93889 61.2861 3.25 52 3.25Z" fill="#DE926A"/>
<path d="M52 3.25C61.2861 3.25 70.1919 6.93889 76.7582 13.5052C83.3244 20.0714 87.0133 28.9772 87.0133 38.2633V83.9367C87.0136 84.7295 86.7736 85.5039 86.325 86.1576C85.8763 86.8113 85.24 87.3136 84.5 87.5983V87.5983C63.6403 95.9611 40.3597 95.9611 19.5 87.5983V87.5983C18.7681 87.3067 18.1411 86.8014 17.7005 86.1483C17.2599 85.4952 17.0263 84.7245 17.03 83.9367V38.2633C17.03 28.9847 20.7129 20.0855 27.2698 13.5205C33.8267 6.95545 42.7214 3.26148 52 3.25V3.25Z" stroke="#45413C" stroke-linecap="round" stroke-linejoin="round"/>
<path d="M81.185 45.5C77.1144 44.3652 73.3513 42.329 70.1745 39.5423C66.9977 36.7556 64.4887 33.2898 62.8333 29.4017L60.8183 24.6133C53.0688 35.0782 41.6129 42.1858 28.795 44.4817L22.7283 45.5867C21.2412 45.6773 19.8446 46.3319 18.8237 47.417C17.8027 48.5021 17.2342 49.9359 17.2342 51.4258C17.2342 52.9157 17.8027 54.3495 18.8237 55.4346C19.8446 56.5197 21.2412 57.1744 22.7283 57.265H23.0967C24.1357 64.164 27.6154 70.4612 32.9033 75.0124C38.1913 79.5636 44.9366 82.0666 51.9133 82.0666C58.8901 82.0666 65.6354 79.5636 70.9233 75.0124C76.2113 70.4612 79.6909 64.164 80.73 57.265H81.0983C82.5855 57.1744 83.982 56.5197 85.003 55.4346C86.024 54.3495 86.5925 52.9157 86.5925 51.4258C86.5925 49.9359 86.024 48.5021 85.003 47.417C83.982 46.3319 82.5855 45.6773 81.0983 45.5867L81.185 45.5Z" fill="#FFCEBF" stroke="#45413C" stroke-linecap="round" stroke-linejoin="round"/>
<path d="M34.515 50.2234C34.5278 50.7141 34.6853 51.1901 34.9678 51.5917C35.2502 51.9932 35.6449 52.3024 36.1024 52.4804C36.56 52.6584 37.0599 52.6973 37.5394 52.5921C38.0189 52.487 38.4567 52.2426 38.7978 51.8895C39.1389 51.5364 39.3681 51.0905 39.4566 50.6076C39.5452 50.1247 39.4891 49.6265 39.2954 49.1754C39.1018 48.7243 38.7792 48.3404 38.3681 48.072C37.9571 47.8036 37.4759 47.6626 36.985 47.6667C36.6532 47.6665 36.3248 47.7331 36.0193 47.8626C35.7139 47.9921 35.4376 48.1819 35.2071 48.4205C34.9766 48.6591 34.7965 48.9417 34.6776 49.2515C34.5587 49.5612 34.5034 49.8918 34.515 50.2234Z" fill="#45413C" stroke="#45413C" stroke-linecap="round" stroke-linejoin="round"/>
<path d="M69.485 50.2234C69.4722 50.7141 69.3147 51.1901 69.0322 51.5917C68.7498 51.9932 68.3551 52.3024 67.8976 52.4804C67.4401 52.6584 66.9402 52.6973 66.4606 52.5921C65.9811 52.487 65.5433 52.2426 65.2022 51.8895C64.8611 51.5364 64.6319 51.0905 64.5434 50.6076C64.4548 50.1247 64.5109 49.6265 64.7046 49.1754C64.8982 48.7243 65.2208 48.3404 65.6319 48.072C66.0429 47.8036 66.5241 47.6626 67.015 47.6667C67.3468 47.6665 67.6752 47.7331 67.9807 47.8626C68.2861 47.9921 68.5624 48.1819 68.7929 48.4205C69.0235 48.6591 69.2035 48.9417 69.3225 49.2515C69.4414 49.5612 69.4966 49.8918 69.485 50.2234Z" fill="#45413C" stroke="#45413C" stroke-linecap="round" stroke-linejoin="round"/>
<path d="M44.005 66.0184C43.8241 66.0163 43.6449 66.0541 43.4801 66.129C43.3154 66.2039 43.1691 66.314 43.0517 66.4517C42.9314 66.5851 42.8434 66.7443 42.7946 66.9172C42.7457 67.09 42.7373 67.2718 42.77 67.4484C43.1375 69.6305 44.2663 71.6119 45.9561 73.0408C47.6458 74.4697 49.7871 75.2538 52 75.2538C54.2129 75.2538 56.3542 74.4697 58.044 73.0408C59.7337 71.6119 60.8625 69.6305 61.23 67.4484C61.2627 67.2718 61.2543 67.09 61.2055 66.9172C61.1566 66.7443 61.0686 66.5851 60.9483 66.4517C60.8309 66.314 60.6846 66.2039 60.5199 66.129C60.3551 66.0541 60.1759 66.0163 59.995 66.0184H44.005Z" fill="#FF6242"/>
<path d="M52 69.8534C49.4506 69.7747 46.9461 70.536 44.8717 72.02C45.7584 73.0397 46.8536 73.8573 48.0833 74.4176C49.3131 74.9779 50.6487 75.2678 52 75.2678C53.3513 75.2678 54.687 74.9779 55.9167 74.4176C57.1464 73.8573 58.2416 73.0397 59.1283 72.02C57.0539 70.536 54.5494 69.7747 52 69.8534Z" fill="#FFA694"/>
<path d="M44.005 66.0184C43.8241 66.0163 43.6449 66.0541 43.4801 66.129C43.3154 66.2039 43.1691 66.314 43.0517 66.4517C42.9314 66.5851 42.8434 66.7443 42.7946 66.9172C42.7457 67.09 42.7373 67.2718 42.77 67.4484C43.1375 69.6305 44.2663 71.6119 45.9561 73.0408C47.6458 74.4697 49.7871 75.2538 52 75.2538C54.2129 75.2538 56.3542 74.4697 58.044 73.0408C59.7337 71.6119 60.8625 69.6305 61.23 67.4484C61.2627 67.2718 61.2543 67.09 61.2055 66.9172C61.1566 66.7443 61.0686 66.5851 60.9483 66.4517C60.8309 66.314 60.6846 66.2039 60.5199 66.129C60.3551 66.0541 60.1759 66.0163 59.995 66.0184H44.005Z" stroke="#45413C" stroke-linecap="round" stroke-linejoin="round"/>
<path d="M32.89 62.725C34.673 62.725 36.1183 61.8617 36.1183 60.7967C36.1183 59.7317 34.673 58.8683 32.89 58.8683C31.107 58.8683 29.6617 59.7317 29.6617 60.7967C29.6617 61.8617 31.107 62.725 32.89 62.725Z" fill="#FFB59E"/>
<path d="M71.11 62.725C72.893 62.725 74.3383 61.8617 74.3383 60.7967C74.3383 59.7317 72.893 58.8683 71.11 58.8683C69.327 58.8683 67.8817 59.7317 67.8817 60.7967C67.8817 61.8617 69.327 62.725 71.11 62.725Z" fill="#FFB59E"/>
</svg>
