<svg width="27" height="29" viewBox="0 0 27 29" fill="none" xmlns="http://www.w3.org/2000/svg">
<path d="M26.7642 10.3157C26.7642 10.0083 26.7385 9.70666 26.7175 9.40445H25.567H25.5017H23.6511C23.1903 4.13457 18.7704 0 13.3821 0C7.99378 0 3.57509 4.13457 3.11187 9.40445H1.26248H1.19714H0.0460888C0.0256697 9.70607 0 10.0083 0 10.3157C0 17.2005 5.20045 22.8659 11.8868 23.6103V25.574H9.09992V28.008H17.6643V25.574H14.8797V23.6103C21.5632 22.8653 26.7642 17.2005 26.7642 10.3157ZM13.3821 2.06408C17.9402 2.06408 21.6343 5.75877 21.6343 10.3157C21.6343 14.8733 17.9408 18.5697 13.3821 18.5697C8.82455 18.5697 5.12928 14.8727 5.12928 10.3157C5.12928 5.75935 8.82455 2.06408 13.3821 2.06408ZM1.23331 10.6395H3.08328C3.2548 16.1848 7.79426 20.632 13.3821 20.632C18.9711 20.632 23.5105 16.1848 23.6821 10.6395H25.5309C25.3588 17.2069 19.9915 22.482 13.3821 22.482C6.77272 22.482 1.40658 17.2069 1.23331 10.6395Z" fill="#F6AEC2"/>
</svg>
