<svg width="25" height="29" viewBox="0 0 25 29" fill="none" xmlns="http://www.w3.org/2000/svg">
<path d="M14.7094 9.1906H11.8723C10.9305 9.1906 10.8341 8.50193 10.8277 8.26014V7.14722C10.8277 6.17692 10.1635 5.38864 9.339 5.38864H6.82881C6.00476 5.38864 5.34009 6.17692 5.34009 7.14722V8.31176C5.31926 8.61603 5.17211 9.1906 4.34941 9.1906H1.45935C0.64888 9.1906 5.2538e-05 9.83943 5.2538e-05 10.6494V12.2505C5.2538e-05 12.2505 -0.0176059 13.6708 0.594547 15.8274C0.594547 15.8278 0.594547 15.8287 0.594999 15.8292L3.07576 24.5691C3.07712 24.5768 3.4656 26.4137 3.4656 26.9041V28.1035C3.4656 28.5037 3.78707 28.832 4.19592 28.832H11.9742C12.383 28.832 12.7036 28.5033 12.7036 28.1035V27.5298C12.7203 27.078 12.8738 26.0529 12.9983 25.2886L13.5729 22.8834L15.5556 15.898C15.5556 15.8971 15.5556 15.8971 15.5556 15.8967C15.9794 14.4043 16.1696 12.1047 16.1696 12.1047V10.649C16.1691 9.83943 15.5198 9.1906 14.7094 9.1906ZM14.0307 13.0442C14.0307 13.0442 13.7662 16.641 12.8639 20.6114C12.8639 20.615 12.8625 20.6177 12.8625 20.6209L11.5793 26.2652C11.5793 26.2657 11.5784 26.2657 11.5784 26.2666C11.4204 26.9607 11.0482 27.1196 10.8141 27.1499H5.79196C4.98738 27.1499 4.75193 26.4776 4.69533 26.2566L4.67904 26.1873C4.67904 26.1869 4.67858 26.1819 4.67858 26.1819L4.66455 26.1267L3.57562 21.569C3.57472 21.5654 3.57426 21.5636 3.57336 21.56C2.80183 18.3317 2.13851 13.6921 2.13851 13.6921V11.9485C2.13851 11.5532 2.45862 11.2331 2.8539 11.2331H13.3157C13.711 11.2331 14.0311 11.5532 14.0311 11.9485V13.0442H14.0307Z" fill="#F6AEC2"/>
<path d="M11.2452 14.8249H8.46336C7.89875 14.8249 7.82766 15.3003 7.82631 15.3103L7.21325 20.5897C7.17884 20.879 7.02218 20.5897 7.02127 20.5892L5.95589 15.4529C5.83862 14.8892 5.44607 14.829 5.30752 14.8249H4.81897C3.9347 14.8249 3.83962 15.3932 3.86769 15.7576L3.91659 16.0556V16.0565L3.98858 16.4929L5.07977 21.5188L5.93687 24.9934C6.10893 25.6847 6.52775 25.8065 6.73059 25.8237H9.41736C9.64511 25.8056 10.0544 25.6897 10.2038 25.0912L11.1483 21.3195L12.0453 17.1219C12.1055 16.8081 12.1643 16.502 12.2173 16.2177C12.47 14.9485 11.5454 14.8313 11.2452 14.8249Z" fill="#F6AEC2"/>
<path d="M23.4194 14.4546H23.0278C22.412 14.465 22.3522 13.8614 22.3486 13.6609V6.32272C22.3509 6.05739 22.3867 4.92998 22.805 3.69979C22.8059 3.69753 22.8059 3.69617 22.8073 3.69345L23.846 0.643102C23.846 0.642649 23.846 0.642196 23.846 0.641744C24.0737 -0.0274588 23.3298 0.000160581 23.3298 0.000160581H19.7189C19.0257 0.000160581 19.1787 0.611408 19.2281 0.765351L19.2295 0.770785C19.2353 0.787537 19.2399 0.800215 19.2399 0.800215L20.2686 3.86279C20.2686 3.86279 20.6792 5.10792 20.6792 6.20319V13.6699C20.6792 14.3178 20.3179 14.4365 20.1183 14.4546H19.6483C18.8736 14.4546 18.2451 15.3497 18.2451 16.454V26.8316C18.2451 27.9373 18.8736 28.8325 19.6483 28.8325H23.419C24.1923 28.8325 24.8221 27.9373 24.8221 26.8316V16.454C24.8226 15.3497 24.1928 14.4546 23.4194 14.4546Z" fill="#F6AEC2"/>
</svg>
