<svg width="105" height="99" viewBox="0 0 105 99" fill="none" xmlns="http://www.w3.org/2000/svg">
<path d="M3.696 49V15.4H7.392V45.688H27.408V49H3.696ZM39.5768 49.432C36.9528 49.432 34.8088 48.76 33.1448 47.416C31.5128 46.072 30.6968 44.328 30.6968 42.184C30.6968 39.944 31.5608 38.168 33.2888 36.856C35.0168 35.512 37.3528 34.84 40.2968 34.84C41.5768 34.84 42.8088 34.984 43.9928 35.272C45.2088 35.56 46.3288 35.96 47.3528 36.472V33.304C47.3528 31.384 46.8088 29.944 45.7208 28.984C44.6328 27.992 43.0488 27.496 40.9688 27.496C39.7848 27.496 38.5848 27.672 37.3688 28.024C36.1848 28.344 34.8728 28.872 33.4328 29.608L32.0888 26.872C33.8168 26.04 35.4168 25.432 36.8888 25.048C38.3608 24.664 39.8328 24.472 41.3047 24.472C44.3448 24.472 46.6808 25.192 48.3128 26.632C49.9768 28.072 50.8088 30.136 50.8088 32.824V49H47.3528V46.648C46.2648 47.576 45.0648 48.28 43.7528 48.76C42.4728 49.208 41.0808 49.432 39.5768 49.432ZM34.1048 42.088C34.1048 43.432 34.6648 44.536 35.7848 45.4C36.9368 46.232 38.4088 46.648 40.2008 46.648C41.6408 46.648 42.9528 46.424 44.1368 45.976C45.3208 45.528 46.3928 44.824 47.3528 43.864V39.352C46.3608 38.68 45.2888 38.2 44.1368 37.912C43.0168 37.592 41.7688 37.432 40.3928 37.432C38.4728 37.432 36.9368 37.864 35.7848 38.728C34.6648 39.56 34.1048 40.68 34.1048 42.088Z" fill="#F6AEC2"/>
<path d="M3.696 50.4H17.328C20.56 50.4 23.136 51.184 25.056 52.752C26.976 54.32 27.936 56.416 27.936 59.04C27.936 60.768 27.472 62.272 26.544 63.552C25.648 64.832 24.4 65.808 22.8 66.48C24.816 67.088 26.4 68.112 27.552 69.552C28.736 70.96 29.328 72.624 29.328 74.544C29.328 77.424 28.272 79.728 26.16 81.456C24.08 83.152 21.328 84 17.904 84H3.696V50.4ZM17.136 53.616H7.392V65.04H17.136C19.312 65.04 21.04 64.528 22.32 63.504C23.632 62.448 24.288 61.056 24.288 59.328C24.288 57.6 23.632 56.224 22.32 55.2C21.04 54.144 19.312 53.616 17.136 53.616ZM17.616 80.784C20.016 80.784 21.936 80.208 23.376 79.056C24.848 77.904 25.584 76.368 25.584 74.448C25.584 72.528 24.848 70.992 23.376 69.84C21.936 68.688 20.016 68.112 17.616 68.112H7.392V80.784H17.616ZM54.8269 81.456C53.4829 82.448 52.0749 83.2 50.6029 83.712C49.1629 84.192 47.5789 84.432 45.8509 84.432C44.1229 84.432 42.4909 84.112 40.9549 83.472C39.4509 82.832 38.1389 81.952 37.0189 80.832C35.9309 79.712 35.0669 78.4 34.4269 76.896C33.7869 75.36 33.4669 73.712 33.4669 71.952C33.4669 70.224 33.7709 68.608 34.3789 67.104C35.0189 65.6 35.8669 64.288 36.9229 63.168C37.9789 62.048 39.2269 61.168 40.6669 60.528C42.1389 59.888 43.6909 59.568 45.3229 59.568C46.9229 59.568 48.4109 59.888 49.7869 60.528C51.1949 61.168 52.3949 62.048 53.3869 63.168C54.4109 64.288 55.2109 65.6 55.7869 67.104C56.3949 68.608 56.6989 70.224 56.6989 71.952V73.056H36.9709C37.2269 75.424 38.2029 77.392 39.8989 78.96C41.5949 80.528 43.6269 81.312 45.9949 81.312C47.2429 81.312 48.4589 81.12 49.6429 80.736C50.8269 80.352 51.8189 79.808 52.6189 79.104L54.8269 81.456ZM45.2269 62.688C43.1469 62.688 41.3389 63.392 39.8029 64.8C38.2989 66.208 37.3869 68.016 37.0669 70.224H53.1469C52.8269 68.112 51.9149 66.336 50.4109 64.896C48.9389 63.424 47.2109 62.688 45.2269 62.688ZM65.2166 49.584V84H61.6646V50.4L65.2166 49.584ZM74.826 49.584V84H71.274V50.4L74.826 49.584ZM101.139 81.456C99.7954 82.448 98.3874 83.2 96.9154 83.712C95.4754 84.192 93.8914 84.432 92.1634 84.432C90.4354 84.432 88.8034 84.112 87.2674 83.472C85.7634 82.832 84.4514 81.952 83.3314 80.832C82.2434 79.712 81.3794 78.4 80.7394 76.896C80.0994 75.36 79.7794 73.712 79.7794 71.952C79.7794 70.224 80.0834 68.608 80.6914 67.104C81.3314 65.6 82.1794 64.288 83.2354 63.168C84.2914 62.048 85.5394 61.168 86.9794 60.528C88.4514 59.888 90.0034 59.568 91.6354 59.568C93.2354 59.568 94.7234 59.888 96.0994 60.528C97.5074 61.168 98.7074 62.048 99.6994 63.168C100.723 64.288 101.523 65.6 102.099 67.104C102.707 68.608 103.011 70.224 103.011 71.952V73.056H83.2834C83.5394 75.424 84.5154 77.392 86.2114 78.96C87.9074 80.528 89.9394 81.312 92.3074 81.312C93.5554 81.312 94.7714 81.12 95.9554 80.736C97.1394 80.352 98.1314 79.808 98.9314 79.104L101.139 81.456ZM91.5394 62.688C89.4594 62.688 87.6514 63.392 86.1154 64.8C84.6114 66.208 83.6994 68.016 83.3794 70.224H99.4594C99.1394 68.112 98.2274 66.336 96.7234 64.896C95.2514 63.424 93.5234 62.688 91.5394 62.688Z" fill="#F6AEC2"/>
</svg>
