<svg width="125" height="66" viewBox="0 0 125 66" fill="none" xmlns="http://www.w3.org/2000/svg">
<path d="M34.3602 10.7761V7.87395H80.8917V10.7761H34.3602Z" fill="#F6AEC2"/>
<path d="M15.7656 10.7761H2.9022V54.6925H80.8918V57.5947H0.000289917L0 7.87395L15.7656 7.87366C19.0979 7.87366 21.8091 4.3414 21.8091 0H24.7113C24.7113 4.3414 27.4226 7.87366 30.7549 7.87366V10.7759C27.4223 10.7759 24.7113 14.3081 24.7113 18.6495H21.8091C21.8091 14.3081 19.0979 10.7761 15.7656 10.7761Z" fill="#F6AEC2"/>
<path d="M97.773 54.6925H89.9533V57.5947H97.773V54.6925Z" fill="#F6AEC2"/>
<path d="M123.413 23.3969H124.864V7.87395H89.9533V10.7761H121.962V20.5815C115.992 21.3004 111.35 26.3969 111.35 32.5574C111.35 38.72 115.992 43.8182 121.962 44.5368V54.6928H116.434C113.102 54.6928 110.391 51.1602 110.391 46.8188H107.489C107.489 51.1602 104.777 54.6922 101.445 54.6922V57.5944C104.777 57.5944 107.489 61.127 107.489 65.4684H110.391C110.391 61.1304 113.097 57.6011 116.426 57.595H124.864V41.7217H123.413C118.362 41.7217 114.253 37.6107 114.253 32.5574C114.252 27.5062 118.362 23.3969 123.413 23.3969ZM108.94 59.5952C108.172 58.1792 107.137 56.9939 105.92 56.143C107.137 55.2924 108.172 54.1071 108.94 52.6911C109.707 54.1071 110.743 55.2924 111.959 56.143C110.743 56.9939 109.707 58.1792 108.94 59.5952Z" fill="#F6AEC2"/>
<path d="M86.7928 47.0516H83.8906V50.244H86.7928V47.0516Z" fill="#F6AEC2"/>
<path d="M86.7928 27.8971H83.8906V31.0895H86.7928V27.8971Z" fill="#F6AEC2"/>
<path d="M86.7928 34.2819H83.8906V37.4743H86.7928V34.2819Z" fill="#F6AEC2"/>
<path d="M86.7928 53.4364H83.8906V56.6288H86.7928V53.4364Z" fill="#F6AEC2"/>
<path d="M86.7928 40.6668H83.8906V43.8592H86.7928V40.6668Z" fill="#F6AEC2"/>
<path d="M86.7928 8.74257H83.8906V11.935H86.7928V8.74257Z" fill="#F6AEC2"/>
<path d="M86.7928 15.1274H83.8906V18.3198H86.7928V15.1274Z" fill="#F6AEC2"/>
<path d="M86.7928 21.5122H83.8906V24.7047H86.7928V21.5122Z" fill="#F6AEC2"/>
<path d="M97.6969 37.1017H94.7947V42.8762H97.6969V37.1017Z" fill="#F6AEC2"/>
<path d="M97.6969 21.5465H94.7947V34.1998H97.6969V21.5465Z" fill="#F6AEC2"/>
<path d="M102.896 21.5465H99.9938V42.8765H102.896V21.5465Z" fill="#F6AEC2"/>
<path d="M14.4044 32.0486C11.2841 31.262 10.2807 30.4553 10.2807 29.1886C10.2807 27.7353 11.6621 26.7153 13.992 26.7153C16.4388 26.7153 17.346 27.8486 17.4284 29.5153H20.4662C20.3769 27.2153 18.9267 25.122 16.0539 24.4353V21.5153H11.9302V24.3953C9.26349 24.962 7.11916 26.6286 7.11916 29.2086C7.11916 32.2886 9.75147 33.822 13.5796 34.7153C17.0229 35.5153 17.7034 36.682 17.7034 37.9353C17.7034 38.8486 17.0367 40.3153 13.992 40.3153C11.1604 40.3153 10.0401 39.082 9.8958 37.5153H6.86487C7.03669 40.4353 9.28411 42.0686 11.9302 42.622V45.5153H16.0539V42.6486C18.7274 42.1486 20.8649 40.6486 20.8649 37.9086C20.8649 34.1353 17.5247 32.842 14.4044 32.0486Z" fill="#F6AEC2"/>
<path d="M29.8307 41.5153H27.2906V31.7243L24.2584 32.6647V30.5993L29.5582 28.7009H29.8307V41.5153ZM42.7682 41.5153H33.9967V39.7751L38.1364 35.363C38.7047 34.7419 39.1237 34.1999 39.3932 33.737C39.6686 33.2741 39.8063 32.8346 39.8063 32.4186C39.8063 31.8503 39.6627 31.405 39.3756 31.0827C39.0885 30.7546 38.6783 30.5905 38.1451 30.5905C37.5709 30.5905 37.1168 30.7897 36.7828 31.1882C36.4547 31.5807 36.2906 32.0993 36.2906 32.7438H33.7418C33.7418 31.9645 33.9264 31.2526 34.2955 30.6081C34.6705 29.9635 35.1979 29.4596 35.8776 29.0964C36.5573 28.7272 37.3278 28.5426 38.1891 28.5426C39.5074 28.5426 40.5299 28.8591 41.2565 29.4919C41.9889 30.1247 42.3551 31.0182 42.3551 32.1725C42.3551 32.8053 42.191 33.4499 41.8629 34.1061C41.5348 34.7624 40.9723 35.527 40.1754 36.4001L37.2662 39.4675H42.7682V41.5153ZM52.9459 36.2243C52.9459 37.9938 52.5797 39.3473 51.8473 40.2848C51.1149 41.2223 50.0426 41.6911 48.6305 41.6911C47.236 41.6911 46.1696 41.2311 45.4313 40.3112C44.693 39.3913 44.3151 38.0729 44.2975 36.3561V34.0007C44.2975 32.2135 44.6666 30.8571 45.4049 29.9313C46.149 29.0055 47.2184 28.5426 48.6129 28.5426C50.0074 28.5426 51.0739 29.0026 51.8121 29.9225C52.5504 30.8366 52.9283 32.152 52.9459 33.8688V36.2243ZM50.4059 33.6403C50.4059 32.5798 50.2594 31.8092 49.9664 31.3288C49.6793 30.8425 49.2281 30.5993 48.6129 30.5993C48.0153 30.5993 47.5729 30.8307 47.2858 31.2936C47.0045 31.7507 46.8551 32.4684 46.8375 33.4469V36.5583C46.8375 37.6012 46.9781 38.3776 47.2594 38.8874C47.5465 39.3913 48.0035 39.6432 48.6305 39.6432C49.2516 39.6432 49.6998 39.4001 49.9752 38.9137C50.2506 38.4274 50.3942 37.6833 50.4059 36.6813V33.6403ZM55.4332 44.7233L54.1061 44.029L54.4225 43.4577C54.8151 42.7428 55.0172 42.0309 55.0289 41.3219V39.3532H57.1735L57.1647 41.111C57.1588 41.7614 56.9948 42.4176 56.6725 43.0798C56.3502 43.7419 55.9371 44.2897 55.4332 44.7233ZM67.6764 36.2243C67.6764 37.9938 67.3102 39.3473 66.5778 40.2848C65.8453 41.2223 64.7731 41.6911 63.361 41.6911C61.9664 41.6911 60.9 41.2311 60.1617 40.3112C59.4235 39.3913 59.0455 38.0729 59.028 36.3561V34.0007C59.028 32.2135 59.3971 30.8571 60.1354 29.9313C60.8795 29.0055 61.9489 28.5426 63.3434 28.5426C64.7379 28.5426 65.8043 29.0026 66.5426 29.9225C67.2809 30.8366 67.6588 32.152 67.6764 33.8688V36.2243ZM65.1364 33.6403C65.1364 32.5798 64.9899 31.8092 64.6969 31.3288C64.4098 30.8425 63.9586 30.5993 63.3434 30.5993C62.7457 30.5993 62.3033 30.8307 62.0162 31.2936C61.735 31.7507 61.5856 32.4684 61.568 33.4469V36.5583C61.568 37.6012 61.7086 38.3776 61.9899 38.8874C62.277 39.3913 62.734 39.6432 63.361 39.6432C63.9821 39.6432 64.4303 39.4001 64.7057 38.9137C64.9811 38.4274 65.1246 37.6833 65.1364 36.6813V33.6403ZM78.0123 36.2243C78.0123 37.9938 77.6461 39.3473 76.9137 40.2848C76.1813 41.2223 75.109 41.6911 73.6969 41.6911C72.3024 41.6911 71.236 41.2311 70.4977 40.3112C69.7594 39.3913 69.3815 38.0729 69.3639 36.3561V34.0007C69.3639 32.2135 69.733 30.8571 70.4713 29.9313C71.2155 29.0055 72.2848 28.5426 73.6793 28.5426C75.0739 28.5426 76.1403 29.0026 76.8785 29.9225C77.6168 30.8366 77.9948 32.152 78.0123 33.8688V36.2243ZM75.4723 33.6403C75.4723 32.5798 75.3258 31.8092 75.0328 31.3288C74.7457 30.8425 74.2946 30.5993 73.6793 30.5993C73.0817 30.5993 72.6393 30.8307 72.3522 31.2936C72.0709 31.7507 71.9215 32.4684 71.9039 33.4469V36.5583C71.9039 37.6012 72.0446 38.3776 72.3258 38.8874C72.6129 39.3913 73.0699 39.6432 73.6969 39.6432C74.318 39.6432 74.7662 39.4001 75.0416 38.9137C75.317 38.4274 75.4606 37.6833 75.4723 36.6813V33.6403Z" fill="#F6AEC2"/>
<path d="M20.4749 9.32418C21.6918 10.1751 22.727 11.3604 23.4946 12.7763C24.262 11.3604 25.2975 10.1751 26.5141 9.32418C25.2975 8.47355 24.2623 7.28829 23.4946 5.87231C22.7273 7.28829 21.6918 8.47355 20.4749 9.32418Z" fill="white"/>
</svg>
